<svg width="256" height="256" viewBox="0 0 256 256" fill="none" xmlns="http://www.w3.org/2000/svg">
<rect width="256" height="256" rx="128" fill="url(#paint0_linear_166_2)"/>
<path d="M78.6274 128.033C78.1174 129.961 77.9775 131.953 77.9775 133.947V164.589C77.9775 188.747 53.0093 202.793 41.6338 181.481C31.8944 163.235 29.2644 143.004 29.6621 130.95C36.537 65.5733 96.1197 40.9856 128.394 41.3668V90.5423C95.9867 90.9026 82.2415 114.371 78.6274 128.033Z" fill="white"/>
<path d="M177.931 128.033C178.441 129.961 178.581 131.953 178.581 133.947V164.589C178.581 188.747 203.549 202.793 214.924 181.481C224.664 163.235 227.294 143.004 226.896 130.95C220.021 65.5733 160.438 40.9856 128.165 41.3668V90.5423C160.571 90.9026 174.317 114.371 177.931 128.033Z" fill="white"/>
<defs>
<linearGradient id="paint0_linear_166_2" x1="85.7991" y1="76.0175" x2="187.808" y2="267.179" gradientUnits="userSpaceOnUse">
<stop stop-color="#0057FF"/>
<stop offset="1" stop-color="#FF00E6"/>
</linearGradient>
</defs>
</svg>
